<?xml version="1.0" encoding="utf-8"?>
<!-- Generator: Adobe Illustrator 13.0.0, SVG Export Plug-In . SVG Version: 6.00 Build 14948)  -->
<!DOCTYPE svg PUBLIC "-//W3C//DTD SVG 1.1//EN" "http://www.w3.org/Graphics/SVG/1.1/DTD/svg11.dtd">
<svg version="1.1" id="Layer_1" xmlns="http://www.w3.org/2000/svg" xmlns:xlink="http://www.w3.org/1999/xlink" x="0px" y="0px"
	 width="300px" height="150px" viewBox="0 0 300 150" enable-background="new 0 0 300 150" xml:space="preserve">
<path fill-rule="evenodd" clip-rule="evenodd" fill="#EA3C33" d="M230.151,137.622c35.751,0,64.743-28.401,64.743-63.436
	c0-35.025-28.992-63.379-64.743-63.379H70.143c-35.759,0-64.71,28.354-64.71,63.379c0,35.034,28.952,63.436,64.71,63.436H230.151"/>
<path fill="none" stroke="#FFF797" stroke-width="0.93" d="M230.151,137.622c35.751,0,64.743-28.401,64.743-63.436
	c0-35.025-28.992-63.379-64.743-63.379H70.143c-35.759,0-64.71,28.354-64.71,63.379c0,35.034,28.952,63.436,64.71,63.436H230.151z"
	/>
<path fill-rule="evenodd" clip-rule="evenodd" fill="#EE3B33" d="M230.151,137.622c35.751,0,64.743-28.401,64.743-63.436
	c0-35.025-28.992-63.379-64.743-63.379H70.143c-35.759,0-64.71,28.354-64.71,63.379c0,35.034,28.952,63.436,64.71,63.436H230.151"/>
<path fill-rule="evenodd" clip-rule="evenodd" fill="#FFFFFF" d="M81.075,83.976L92.02,54.856l10.952,29.119H81.075
	 M133.589,108.096l-27.417-70.075c-2.156-5.085-7.672-8.745-13.646-8.745c-6.051,0-11.65,3.659-13.763,8.745L60.84,83.976h-7.545
	c-5.321,0-9.689,3.969-9.689,9.303c0,5.308,4.368,9.589,9.765,9.589l-2.515,6.553c-0.303,0.668-0.303,2.008-0.303,2.008
	c0,5.294,4.36,9.558,9.789,9.558c4.472,0,8.126-2.926,9.318-6.943l4.336-11.957h36.724l4.643,12.843
	c1.463,3.627,4.851,6.058,9.119,6.058c5.337,0,9.689-4.264,9.689-9.558C134.171,110.088,134.055,109.221,133.589,108.096z"/>
<path fill-rule="evenodd" clip-rule="evenodd" fill="#FFFFFF" d="M183.668,111.684l0.056-63.205h-1.442
	c-5.388,0-9.765-4.312-9.765-9.605c0-5.205,4.244-9.485,9.585-9.485c0,0,16.958,0,32.045,0c15.257,0,34.714,5.771,34.714,31.422
	c0,25.54-23.156,31.526-35.851,31.526c-5.057,0-9.783,0-9.783,0v19.45c0,5.221-4.48,9.198-9.869,9.198
	C188.008,120.985,183.668,116.889,183.668,111.684 M203.911,74.187c0,0,7.266,0,10.642,0c3.604,0,13.69-0.781,13.69-13.304
	c0-12.515-9.992-13.375-13.69-13.375c-3.563,0-10.642,0-10.642,0V74.187z"/>
<path fill-rule="evenodd" clip-rule="evenodd" fill="#FFFFFF" d="M162.158,33.182c0.652,1.771,2.802,4.345,0.784,9.414
	c-1.183,3.013-6.905,6.537-14.626,12.141c-7.166,5.118-6.409,10.849-5.715,14.436c0.2,1.618,1.355,2.726,2.989,2.726
	c1.643,0,3.483-1.418,2.998-2.933c-0.574-1.722-1.535-4.472,1.745-8.266c2.423-2.639,7.951-5.962,7.951-5.962
	c6.756,3.236,9.861,7.772,9.861,16.42c0,7.988-8.988,14.723-20.606,14.723c-11.753,0-18.218-8.855-18.218-16.915
	c0-8.154,7.919-14.229,11.829-16.684c0.562-0.398,1.451-0.686,1.451-1.164c0-0.534-0.315-0.973-0.953-1.419
	c-3.607-2.734-5.062-5.316-5.169-8.808c-0.096-2.687,3.021-6.401,7.928-6.489c3.607,0,4.962,1.372,6.528,2.471
	c0.753,0.598,1.446,1.26,2.499,1.26c1.533,0,2.913-1.26,2.913-2.83c0-0.598-0.188-1.459-0.594-1.722
	c-2.997-2.599-6.384-4.862-11.502-4.647c-7.664,0.342-12.985,4.647-13.575,11.08c-0.303,3.347,0.367,5.133,1.542,6.951
	c0.988,1.514,1.431,2.057,2.148,2.838c0.295,0.287-0.382,0.486-0.578,0.781c-3.691,3.085-10.475,9.431-10.279,18.589
	c0.271,10.354,8.023,22.398,24.113,22.398c15.974,0,26.754-9.692,26.437-22.319c-0.188-13.001-11.036-18.342-11.036-18.342
	c3.208-2.432,6.688-7.676,6.688-12.037c0-3.101-0.865-5.883-1.938-7.581c-0.773-1.354-2.3-2.359-3.858-1.904
	C162.357,29.938,161.572,31.676,162.158,33.182"/>
</svg>
