<?xml version="1.0" encoding="UTF-8" standalone="no"?>
<svg
   xmlns:dc="http://purl.org/dc/elements/1.1/"
   xmlns:cc="http://creativecommons.org/ns#"
   xmlns:rdf="http://www.w3.org/1999/02/22-rdf-syntax-ns#"
   xmlns:svg="http://www.w3.org/2000/svg"
   xmlns="http://www.w3.org/2000/svg"
   viewBox="0 0 387.88 168.46667"
   height="168.46667"
   width="387.88"
   xml:space="preserve"
   id="svg2"
   version="1.1"><metadata
     id="metadata8"><rdf:RDF><cc:Work
         rdf:about=""><dc:format>image/svg+xml</dc:format><dc:type
           rdf:resource="http://purl.org/dc/dcmitype/StillImage" /></cc:Work></rdf:RDF></metadata><defs
     id="defs6" /><g
     transform="matrix(1.3333333,0,0,-1.3333333,0,168.46667)"
     id="g10"><g
       transform="scale(0.1)"
       id="g12"><path
         id="path14"
         style="fill:#5e676f;fill-opacity:1;fill-rule:nonzero;stroke:none"
         d="m 1984.4,1023.91 c 0,0 -0.56,106.87 -6.46,166.9 l -72.99,-172.5 c 0,0 -47.7,109.51 -76.84,171.03 -6.17,-62.4 -7.96,-165.43 -7.96,-165.43 h -22.67 c 0,0 11.48,124.22 14.43,235.48 h 20.3 c 0,0 55.06,-123.63 80.94,-177.78 24.15,55.63 73.6,177.78 73.6,177.78 h 20.02 c 0,0 3.82,-106.57 13.24,-235.48 h -35.61 z m -279.92,118.33 c 0,67.41 -26.49,107.14 -73.87,107.14 -47.38,0 -73.87,-39.73 -73.87,-107.14 0,-67.98 25.6,-108.31 73.87,-108.31 48.27,0 73.87,40.33 73.87,108.31 m 35.9,-0.29 c 0,-72.12 -45.01,-122.16 -109.78,-122.16 -64.76,0 -109.8,50.04 -109.8,122.16 0,72.41 43.28,121.56 109.8,121.56 66.51,0 109.78,-49.15 109.78,-121.56 m -324.73,0.9 c 20.98,-40.92 66.83,-118.94 66.83,-118.94 h -38.05 c 0,0 -27.11,54.47 -69.05,129.53 h 8.65 c 35.81,0 51.76,15.59 51.76,46.8 0,27.06 -15.4,45.62 -45.03,45.62 -8.67,0 -21.26,-1.79 -21.26,-1.79 0,0 -0.56,-13.23 -0.56,-43.84 v -97.73 c 0,-52.38 2.23,-78.6 2.23,-78.6 h -33.55 c 0,0 2.52,92.73 2.52,141.01 0,33.54 -2.52,94.48 -2.52,94.48 h 67.96 c 39.69,0 61.51,-20.03 61.51,-55.05 0.02,-31.19 -18.72,-52.38 -51.44,-61.49 m -136.3,94.17 c 0,0 -17.37,5.59 -45.05,5.59 h -14.71 c 0,0 -0.89,-50.63 -0.89,-68.59 0,-65.63 3.24,-150.11 3.24,-150.11 h -37.08 c 0,0 3.53,84.49 3.53,150.11 0,17.96 -0.87,68.59 -0.87,68.59 h -14.73 c -27.97,0 -45.32,-5.59 -45.32,-5.59 v 22.38 h 151.89 v -22.38 z m -230.53,-151.87 c -4.11,20.01 -18.25,32.37 -43.86,46.78 -32.663,19.14 -52.101,32.39 -55.624,63.88 -3.84,39.15 27.656,67.69 67.694,67.69 22.36,0 41.78,-4.4 50.04,-7.05 v -27.97 c 0,0 -18.56,20.9 -48.27,20.9 -23.28,0 -43.007,-12.96 -43.007,-36.5 0,-20.61 16.211,-30.32 44.757,-47.09 37.99,-22.38 57.13,-40.34 57.13,-74.19 0,-41.8 -34.16,-71.82 -75.37,-71.82 -22.083,0 -40.044,3.54 -50.052,7.07 v 27.95 c 0,0 20.027,-20.88 53.592,-20.88 30.02,0.01 48.55,24.15 42.97,51.23 m -274.953,160.11 c -18.242,0 -32.961,-1.47 -32.961,-1.47 0,0 -0.593,-60.06 -0.593,-101.84 0,-48.27 1.179,-101.54 1.179,-101.54 0,0 12.348,-2.36 27.961,-2.36 60.613,0 91.25,38.27 91.25,107.14 -0.012,64.15 -29.453,100.07 -86.836,100.07 m 6.172,-221.35 h -73.594 c 0,0 3.243,74.47 3.243,118.05 0,42.67 -3.243,117.45 -3.243,117.45 h 84.5 c 68.879,0 105.078,-38.85 105.078,-113.33 -0.007,-75.37 -42.683,-122.17 -115.984,-122.17 m -196.926,118.94 c 20.989,-40.92 66.86,-118.94 66.86,-118.94 h -38.059 c 0,0 -27.117,54.47 -69.062,129.53 h 8.671 c 35.79,0 51.731,15.59 51.731,46.8 0,27.06 -15.395,45.62 -45.031,45.62 -8.66,0 -21.25,-1.79 -21.25,-1.79 0,0 -0.567,-13.23 -0.567,-43.84 v -97.73 c 0,-52.38 2.246,-78.6 2.246,-78.6 h -33.554 c 0,0 2.507,92.73 2.507,141.01 0,33.54 -2.507,94.48 -2.507,94.48 h 67.961 c 39.683,0 61.511,-20.03 61.511,-55.05 0,-31.19 -18.73,-52.38 -51.457,-61.49 m -173.98,-0.61 c 0,67.41 -26.496,107.14 -73.891,107.14 -47.383,0 -73.875,-39.73 -73.875,-107.14 0,-67.98 25.598,-108.31 73.875,-108.31 48.274,0 73.891,40.33 73.891,108.31 m 35.906,-0.29 c 0,-72.12 -45.039,-122.16 -109.805,-122.16 -64.738,0 -109.785,50.04 -109.785,122.16 0,72.41 43.274,121.56 109.785,121.56 66.524,0 109.805,-49.15 109.805,-121.56 M 24.4336,1023.91 H 0 c 0,0 3.24219,95.08 3.24219,186.04 0,15.88 -0.86719,49.45 -0.86719,49.45 h 17.3594 c 0,0 69.1719,-102.14 123.0386,-174.55 v 91.55 c 0,65.63 -3.535,83 -3.535,83 h 24.715 c 0,0 -3.23,-86.25 -3.23,-186.32 0,-9.72 0.593,-49.17 0.593,-49.17 H 144.23 c 0,0 -77.4136,114.51 -122.1402,173.68 v -90.67 c 0,-65.92 2.3438,-83.01 2.3438,-83.01" /><path
         id="path16"
         style="fill:#5e676f;fill-opacity:1;fill-rule:nonzero;stroke:none"
         d="m 405.898,896.191 c -130.593,0 -233.593,-65.882 -290.207,-175.152 V 884.406 H 0 V 24.3711 H 123.879 V 482.012 c 0.359,162.722 112.84,289.625 281.07,289.933 5.766,0 11.66,-0.121 17.727,-0.558 l 11.679,-0.602 V 895.23 l -10.507,0.473 c -5.977,0.414 -11.844,0.488 -17.403,0.488 z m 1289.682,12.5 h -2.07 C 1431.19,908.285 1288.24,698.555 1287.86,454.355 1288.24,210.18 1431.17,0.410156 1693.51,0.0195313 h 1.11 0.14 c 190.46,0 326.64,129.2184687 354,334.3754687 l 1.66,12.421 h -124.39 l -0.93,-9.961 c -12.74,-134.867 -111.44,-228.734 -231.61,-228.734 -187.63,0.258 -281.25,170.649 -281.73,346.234 0.48,175.493 94.12,345.954 281.73,346.223 127.84,-0.719 197.67,-70.98 225.47,-192.726 l 1.78,-8.633 h 123.01 l -1.5,12.344 C 2019.74,807.797 1876.2,908.691 1695.58,908.691 M 763.66,108.141 c -91.16,0.238 -174.883,59.539 -174.976,154.5 0.386,76.226 47.546,112.027 121.453,136.187 73.496,23.36 170.293,30.781 257.441,46.25 21.172,4.317 53.652,8.633 76.132,24.453 V 360.098 357.266 C 1043.61,202.191 913.723,108.57 763.66,108.141 m 81.992,800.55 c -191.636,0 -336.121,-89.921 -345.203,-291.347 l -0.613,-11.582 h 124.117 l 0.207,10.683 c 3.926,130.321 88.977,182.918 212.317,184.133 118.816,-1.613 206.313,-30.453 207.233,-161.156 -1.81,-86.863 -36,-90.535 -121.222,-102.703 C 812.715,523.613 700.195,515.41 613.176,479.863 525.996,444.609 464.188,377.793 464.895,256.07 464.746,169.039 497.883,103.73 551.23,61.5781 604.578,19.4492 676.992,0 755.508,0 h 2.605 c 149.231,0 227.434,56.4102 294.447,151.559 1.87,-31.848 7.46,-59.6879 22.17,-82.0902 19.07,-29.0782 53.67,-45.0782 106.3,-45.0782 h 1.32 c 27.98,0 45.48,1.6797 68.64,6.7383 l 8.66,1.8203 V 144.32 l -15.08,-6.23 c -6.62,-2.559 -18.52,-5.59 -27.74,-5.59 h -0.47 c -35.67,1.441 -47.37,15.41 -48.87,50.68 v 444.898 c 0.29,114.656 -41.75,186.77 -103.29,227.961 -61.4,41.41 -140.282,52.676 -214.923,52.676 l -3.625,-0.024 M 2276.03,1259.15 H 2152.11 V 24.3906 h 123.92 V 348.516 l 151.92,127.187 326.19,-451.3124 h 154.94 l -386.75,537.0354 370.32,322.98 h -169.34 l -447.27,-392.648 -0.01,767.392 v 0" /></g></g></svg>