<?xml version="1.0" encoding="UTF-8" standalone="no"?>
<svg
   xmlns:dc="http://purl.org/dc/elements/1.1/"
   xmlns:cc="http://creativecommons.org/ns#"
   xmlns:rdf="http://www.w3.org/1999/02/22-rdf-syntax-ns#"
   xmlns:svg="http://www.w3.org/2000/svg"
   xmlns="http://www.w3.org/2000/svg"
   xmlns:sodipodi="http://sodipodi.sourceforge.net/DTD/sodipodi-0.dtd"
   xmlns:inkscape="http://www.inkscape.org/namespaces/inkscape"
   viewBox="0 0 249.44863 166.10652"
   height="166.10652"
   width="249.44862"
   xml:space="preserve"
   id="svg2"
   version="1.1"
   sodipodi:docname="PathMark.svg"
   inkscape:version="0.92.3 (2405546, 2018-03-11)"><sodipodi:namedview
     pagecolor="#ffffff"
     bordercolor="#666666"
     borderopacity="1"
     objecttolerance="10"
     gridtolerance="10"
     guidetolerance="10"
     inkscape:pageopacity="0"
     inkscape:pageshadow="2"
     inkscape:window-width="3440"
     inkscape:window-height="1361"
     id="namedview859"
     showgrid="false"
     inkscape:zoom="4.3994847"
     inkscape:cx="125.20729"
     inkscape:cy="70.221633"
     inkscape:window-x="-9"
     inkscape:window-y="-9"
     inkscape:window-maximized="1"
     inkscape:current-layer="svg2" /><metadata
     id="metadata8"><rdf:RDF><cc:Work
         rdf:about=""><dc:format>image/svg+xml</dc:format><dc:type
           rdf:resource="http://purl.org/dc/dcmitype/StillImage" /></cc:Work></rdf:RDF></metadata><defs
     id="defs6" /><g
     transform="matrix(1.3333333,0,0,-1.3333333,-4.1260399,212.31333)"
     id="g10"><g
       transform="scale(0.1)"
       id="g12"><path
         id="path16"
         style="fill:#ffffff;fill-opacity:1;fill-rule:evenodd;stroke:none"
         d="M 30.9453,346.551 H 1901.81 V 1592.35 H 30.9453 V 346.551"
         inkscape:connector-curvature="0" /><path
         id="path18"
         style="fill:#00adef;fill-opacity:1;fill-rule:evenodd;stroke:none"
         d="M 1901.81,1144.64 H 986.926 c -28.121,0 -43.258,0 -67.051,10.82 -34.605,19.46 -25.953,62.72 -58.395,84.34 -12.976,6.49 -17.304,12.98 -36.769,15.15 H 30.9453 v 337.4 H 1901.81 v -447.71"
         inkscape:connector-curvature="0" /><path
         id="path20"
         style="fill:#ee2c30;fill-opacity:1;fill-rule:evenodd;stroke:none"
         d="m 247.23,865.633 v 346.057 h 123.282 c 19.465,-2.16 30.281,-8.65 45.422,-21.63 23.789,-21.63 19.464,-56.23 19.464,-93 0,-36.77 2.165,-80.02 -21.628,-97.33 -32.442,-23.789 -58.395,-23.789 -101.653,-23.789 V 865.633 H 247.23"
         inkscape:connector-curvature="0" /><path
         id="path22"
         style="fill:#ffffff;fill-opacity:1;fill-rule:evenodd;stroke:none"
         d="m 312.117,1148.97 v -110.31 c 21.629,0 36.766,-4.32 49.746,10.82 6.489,6.48 6.489,25.95 6.489,45.42 -2.164,19.46 2.16,41.09 -10.817,49.74 -8.652,6.49 -21.629,6.49 -45.418,4.33"
         inkscape:connector-curvature="0" /><path
         id="path24"
         style="fill:#ee2c30;fill-opacity:1;fill-rule:evenodd;stroke:none"
         d="m 441.887,1064.62 23.789,54.07 h 56.234 c 25.957,-2.17 41.094,-2.17 54.07,-10.81 17.305,-12.98 15.141,-32.45 15.141,-49.75 V 859.145 h -93 c -21.629,0 -34.605,2.164 -51.91,15.14 -21.629,17.301 -19.465,41.094 -19.465,71.371 -2.164,28.121 -2.164,49.75 17.305,69.214 15.137,15.14 49.742,15.14 84.347,12.98 0,12.97 0,23.79 -4.324,28.11 -6.488,6.49 -6.488,8.66 -17.304,8.66 h -64.883"
         inkscape:connector-curvature="0" /><path
         id="path26"
         style="fill:#ffffff;fill-opacity:1;fill-rule:evenodd;stroke:none"
         d="m 528.398,917.543 v 56.234 c -17.3,0 -28.117,2.164 -36.765,-4.324 -4.328,-4.328 -4.328,-15.144 -4.328,-25.957 0,-8.652 0,-15.141 6.488,-23.793 4.328,-4.324 15.141,-2.16 34.605,-2.16"
         inkscape:connector-curvature="0" /><path
         id="path28"
         style="fill:#ee2c30;fill-opacity:1;fill-rule:evenodd;stroke:none"
         d="m 684.125,1172.76 h -43.254 l -43.258,-110.31 h 23.793 V 908.891 c 0,-15.141 0,-21.629 8.649,-32.446 8.652,-10.812 17.304,-15.136 32.445,-15.136 h 45.418 l 21.629,56.234 H 701.43 c -4.325,-2.164 -10.813,-2.164 -12.977,2.16 -4.328,4.328 -4.328,6.488 -4.328,12.977 v 129.77 h 38.934 v 58.4 h -38.934 v 51.91"
         inkscape:connector-curvature="0" /><path
         id="path30"
         style="fill:#ee2c30;fill-opacity:1;fill-rule:evenodd;stroke:none"
         d="M 798.758,1062.45 V 861.309 h -60.559 v 346.051 h 60.559 v -88.67 h 34.605 c 28.117,0 41.094,-2.17 56.235,-19.47 10.812,-15.14 10.812,-28.11 10.812,-45.42 v -17.3 -274.684 h -36.769 c -6.489,2.164 -10.813,4.325 -17.301,10.817 -6.488,6.488 -8.652,15.137 -6.488,28.113 v 240.074 c 0,6.49 -2.164,8.66 -4.329,12.98 -4.324,4.33 -6.488,6.49 -10.812,8.65 h -25.953"
         inkscape:connector-curvature="0" /><path
         id="path32"
         style="fill:#00adef;fill-opacity:1;fill-rule:evenodd;stroke:none"
         d="m 1216.19,965.125 23.79,54.075 h 64.88 c 23.8,-2.16 36.77,-4.33 51.91,-12.98 15.14,-12.978 15.14,-30.279 15.14,-47.583 V 759.652 h -90.84 c -23.79,0 -36.77,2.164 -51.91,15.141 -21.62,17.305 -21.62,41.094 -21.62,71.375 0,25.953 -2.17,45.418 17.3,64.883 15.14,15.14 51.91,15.14 84.35,12.98 2.16,12.977 0,28.114 -4.33,32.442 -4.32,6.488 -6.48,8.652 -17.3,8.652 h -71.37"
         inkscape:connector-curvature="0" /><path
         id="path34"
         style="fill:#ffffff;fill-opacity:1;fill-rule:evenodd;stroke:none"
         d="m 1311.35,815.887 v 56.234 c -17.3,0 -28.12,2.164 -38.93,-4.324 -4.33,-4.328 -4.33,-15.141 -2.16,-25.953 0,-10.817 0,-15.141 6.49,-23.793 4.32,-4.324 15.14,-4.324 34.6,-2.164"
         inkscape:connector-curvature="0" /><path
         id="path36"
         style="fill:#00adef;fill-opacity:1;fill-rule:evenodd;stroke:none"
         d="m 986.926,761.816 h -60.563 v 253.054 h 216.287 c 15.14,0 25.96,-4.32 36.77,-15.14 10.81,-10.812 15.14,-21.628 15.14,-38.933 V 761.816 h -64.89 v 179.516 c 0,4.324 0,6.488 -4.32,10.813 -2.17,4.328 -8.65,8.652 -15.14,8.652 h -19.47 V 761.816 h -60.56 v 175.192 c 0,6.488 0,10.812 -4.32,15.137 -4.33,4.328 -8.65,8.652 -15.14,8.652 H 986.926 V 761.816"
         inkscape:connector-curvature="0" /><path
         id="path38"
         style="fill:#00adef;fill-opacity:1;fill-rule:evenodd;stroke:none"
         d="m 1490.87,1014.87 19.47,-56.233 h -30.29 c -6.48,0 -8.65,0 -12.97,-2.164 -6.49,-4.328 -8.65,-8.653 -6.49,-15.141 V 761.816 h -62.72 v 253.054 h 93"
         inkscape:connector-curvature="0" /><path
         id="path40"
         style="fill:#00adef;fill-opacity:1;fill-rule:evenodd;stroke:none"
         d="m 1521.15,1099.22 h 62.72 V 919.703 l 49.75,88.677 h 64.88 l -51.91,-93.001 c 10.82,-2.164 19.47,-4.328 28.12,-12.977 4.33,-6.488 8.65,-10.816 8.65,-19.464 l 12.98,-121.122 h -60.56 l -8.65,84.352 c 0,4.324 -2.17,6.488 -6.49,10.812 -4.33,4.329 -8.65,6.489 -15.14,6.489 h -21.63 V 761.816 h -62.72 v 337.404"
         inkscape:connector-curvature="0" /><path
         id="path42"
         style="fill:#ee2c30;fill-opacity:1;fill-rule:evenodd;stroke:none"
         d="M 1901.81,694.77 H 880.945 c -28.117,-2.165 -43.257,-2.165 -67.047,10.812 -34.605,17.305 -23.793,60.559 -58.398,82.188 -12.977,8.652 -15.141,12.976 -34.605,15.14 H 30.9453 V 346.551 H 1901.81 V 694.77"
         inkscape:connector-curvature="0" /></g></g></svg>